<svg width="23" height="21" viewBox="0 0 23 21" fill="none" xmlns="http://www.w3.org/2000/svg">
<path d="M11.378 7.304C10.3171 7.304 9.29972 7.72543 8.54957 8.47557C7.79943 9.22572 7.378 10.2431 7.378 11.304C7.378 12.3649 7.79943 13.3823 8.54957 14.1324C9.29972 14.8826 10.3171 15.304 11.378 15.304C12.4389 15.304 13.4563 14.8826 14.2064 14.1324C14.9566 13.3823 15.378 12.3649 15.378 11.304C15.378 10.2431 14.9566 9.22572 14.2064 8.47557C13.4563 7.72543 12.4389 7.304 11.378 7.304ZM11.378 13.304C11.1117 13.31 10.8468 13.2628 10.599 13.165C10.3511 13.0673 10.1253 12.921 9.93483 12.7348C9.74431 12.5486 9.59291 12.3262 9.48953 12.0807C9.38614 11.8351 9.33285 11.5714 9.33278 11.305C9.33272 11.0386 9.38588 10.7749 9.48914 10.5293C9.5924 10.2837 9.74369 10.0612 9.93411 9.87493C10.1245 9.68862 10.3503 9.54223 10.598 9.44436C10.8458 9.34649 11.1107 9.29911 11.377 9.305C11.8996 9.31656 12.3968 9.53222 12.7624 9.90584C13.1279 10.2795 13.3327 10.7813 13.3328 11.304C13.3329 11.8267 13.1284 12.3287 12.7631 12.7025C12.3977 13.0763 11.9006 13.2922 11.378 13.304ZM11.378 0L0 7.111L1.06 8.807L2.378 7.983V17.804C2.378 18.467 2.64139 19.1029 3.11023 19.5718C3.57907 20.0406 4.21496 20.304 4.878 20.304H17.878C18.541 20.304 19.1769 20.0406 19.6458 19.5718C20.1146 19.1029 20.378 18.467 20.378 17.804V7.983L21.696 8.807L22.756 7.111L11.378 0ZM18.378 17.804C18.378 17.9366 18.3253 18.0638 18.2316 18.1576C18.1378 18.2513 18.0106 18.304 17.878 18.304H4.878C4.74539 18.304 4.61821 18.2513 4.52445 18.1576C4.43068 18.0638 4.378 17.9366 4.378 17.804V6.733L11.378 2.358L18.378 6.733V17.804Z" fill="#E1E8ED"/>
</svg>
