<svg width="21" height="21" viewBox="0 0 21 21" fill="none" xmlns="http://www.w3.org/2000/svg">
<path d="M2 10.25C2 5.69 5.69 2 10.25 2C14.81 2 18.5 5.69 18.5 10.25C18.5 14.81 14.81 18.5 10.25 18.5C5.69 18.5 2 14.81 2 10.25ZM10.25 0C4.59 0 0 4.59 0 10.25C0 15.91 4.59 20.5 10.25 20.5C15.91 20.5 20.5 15.91 20.5 10.25C20.5 4.59 15.91 0 10.25 0ZM5.5 11.5C6.19 11.5 6.75 10.94 6.75 10.25C6.75 9.56 6.19 9 5.5 9C4.81 9 4.25 9.56 4.25 10.25C4.25 10.94 4.81 11.5 5.5 11.5ZM15 11.5C15.69 11.5 16.25 10.94 16.25 10.25C16.25 9.56 15.69 9 15 9C14.31 9 13.75 9.56 13.75 10.25C13.75 10.94 14.31 11.5 15 11.5ZM11.5 10.25C11.5 10.94 10.94 11.5 10.25 11.5C9.56 11.5 9 10.94 9 10.25C9 9.56 9.56 9 10.25 9C10.94 9 11.5 9.56 11.5 10.25Z" fill="#E1E8ED"/>
</svg>
