<svg width="20" height="16" viewBox="0 0 20 16" fill="none" xmlns="http://www.w3.org/2000/svg">
<path d="M19.6343 0.0318161C18.8193 0.416816 17.4323 1.13882 16.7353 1.27682C16.7083 1.28382 16.6863 1.29282 16.6603 1.29982C15.8473 0.497816 14.7333 0.000815983 13.5003 0.000815983C11.0153 0.000815983 9.00032 2.01582 9.00032 4.50082C9.00032 4.63182 8.98932 4.87282 9.00032 5.00082C5.78232 5.00082 3.43232 3.32182 1.67332 1.16382C1.43832 0.873816 1.18832 1.02482 1.13632 1.23082C1.01932 1.69682 0.979325 2.47582 0.979325 3.03182C0.979325 4.43282 2.07432 5.80882 3.77932 6.66182C3.46532 6.74282 3.11932 6.80082 2.75932 6.80082C2.33532 6.80082 1.84732 6.68982 1.42032 6.46582C1.26232 6.38282 0.921324 6.40582 1.02232 6.80982C1.42732 8.42882 3.27532 9.56582 4.92632 9.89682C4.55132 10.1178 3.75132 10.0728 3.38332 10.0728C3.24732 10.0728 2.77432 10.0408 2.46832 10.0028C2.18932 9.96882 1.76032 10.0408 2.11932 10.5848C2.89032 11.7518 4.63432 12.4848 6.13532 12.5128C4.75332 13.5968 2.49332 13.9928 0.328324 13.9928C-0.109675 13.9828 -0.0876755 14.4818 0.265325 14.6668C1.86232 15.5048 4.47832 16.0008 6.34732 16.0008C13.7773 16.0008 18.0003 10.3378 18.0003 4.99982C18.0003 4.91382 17.9983 4.73382 17.9953 4.55282C17.9953 4.53482 18.0003 4.51782 18.0003 4.49982C18.0003 4.47282 17.9923 4.44682 17.9923 4.41982C17.9893 4.28382 17.9863 4.15682 17.9833 4.09082C18.5723 3.66582 19.4743 2.92782 19.9303 2.36282C20.0853 2.17082 19.9603 1.93782 19.7493 2.01082C19.2063 2.19982 18.2673 2.56582 17.6793 2.63582C18.8563 1.85682 19.4383 1.17882 19.9383 0.425816C20.1093 0.168816 19.8953 -0.0921839 19.6343 0.0318161Z" fill="#E1E8ED"/>
</svg>
